HIERARCHY
ROOT hip
{
  OFFSET 0 0 0
  CHANNELS 6 Xposition Yposition Zposition Zrotation Yrotation Xrotation
  JOINT abdomen
  {
    OFFSET 0 20.6881 -0.73152
    CHANNELS 3 Zrotation Xrotation Yrotation
    JOINT chest
    {
      OFFSET 0 11.7043 -0.48768
      CHANNELS 3 Zrotation Xrotation Yrotation
      JOINT neck
      {
        OFFSET 0 22.1894 -2.19456
        CHANNELS 3 Zrotation Xrotation Yrotation
        JOINT head
        {
          OFFSET -0.24384 7.07133 1.2192
          CHANNELS 3 Zrotation Xrotation Yrotation
          JOINT leftEye
          {
            OFFSET 4.14528 8.04674 8.04672
            CHANNELS 3 Zrotation Xrotation Yrotation
            End Site
            {
              OFFSET 1 0 0
            }
          }
          JOINT rightEye
          {
            OFFSET -3.6576 8.04674 8.04672
            CHANNELS 3 Zrotation Xrotation Yrotation
            End Site
            {
              OFFSET 1 0 0
            }
          }
        }
      }
      JOINT rCollar
      {
        OFFSET -2.68224 19.2634 -4.8768
        CHANNELS 3 Zrotation Xrotation Yrotation
        JOINT rShldr
        {
          OFFSET -8.77824 -1.95073 1.46304
          CHANNELS 3 Zrotation Xrotation Yrotation
          JOINT rForeArm
          {
            OFFSET -28.1742 -1.7115 0.48768
            CHANNELS 3 Zrotation Xrotation Yrotation
            JOINT rHand
            {
              OFFSET -22.5879 0.773209 7.07136
              CHANNELS 3 Zrotation Xrotation Yrotation
              JOINT rThumb1
              {
                OFFSET -1.2192 -0.487915 3.41376
                CHANNELS 3 Zrotation Xrotation Yrotation
                JOINT rThumb2
                {
                  OFFSET -3.37035 -0.52449 3.41376
                  CHANNELS 3 Zrotation Xrotation Yrotation
                  End Site
                  {
                    OFFSET -1.78271 -1.18214 1.43049
                  }
                }
              }
              JOINT rIndex1
              {
                OFFSET -7.75947 0.938293 5.60832
                CHANNELS 3 Zrotation Xrotation Yrotation
                JOINT rIndex2
                {
                  OFFSET -2.54057 -0.884171 1.56538
                  CHANNELS 3 Zrotation Xrotation Yrotation
                  End Site
                  {
                    OFFSET -1.62519 -0.234802 1.16502
                  }
                }
              }
              JOINT rMid1
              {
                OFFSET -8.24714 1.18213 3.41376
                CHANNELS 3 Zrotation Xrotation Yrotation
                JOINT rMid2
                {
                  OFFSET -3.10165 -0.590103 1.0647
                  CHANNELS 3 Zrotation Xrotation Yrotation
                  End Site
                  {
                    OFFSET -2.48547 -0.328903 0.83742
                  }
                }
              }
              JOINT rRing1
              {
                OFFSET -8.82822 0.546677 1.51678
                CHANNELS 3 Zrotation Xrotation Yrotation
                JOINT rRing2
                {
                  OFFSET -2.60934 -0.819778 -0.0198488
                  CHANNELS 3 Zrotation Xrotation Yrotation
                  End Site
                  {
                    OFFSET -2.33842 -0.294052 0.168128
                  }
                }
              }
              JOINT rPinky1
              {
                OFFSET -8.27202 -0.0477905 -0.4584
                CHANNELS 3 Zrotation Xrotation Yrotation
                JOINT rPinky2
                {
                  OFFSET -1.82734 -0.647385 -0.700984
                  CHANNELS 3 Zrotation Xrotation Yrotation
                  End Site
                  {
                    OFFSET -1.69225 -0.51767 -0.607171
                  }
                }
              }
            }
          }
        }
      }
      JOINT lCollar
      {
        OFFSET 2.68224 19.2634 -4.8768
        CHANNELS 3 Zrotation Xrotation Yrotation
        JOINT lShldr
        {
          OFFSET 8.77824 -1.95073 1.46304
          CHANNELS 3 Zrotation Xrotation Yrotation
          JOINT lForeArm
          {
            OFFSET 28.1742 -1.7115 0.48768
            CHANNELS 3 Zrotation Xrotation Yrotation
            JOINT lHand
            {
              OFFSET 22.5879 0.773209 7.07136
              CHANNELS 3 Zrotation Xrotation Yrotation
              JOINT lThumb1
              {
                OFFSET 1.2192 -0.487915 3.41376
                CHANNELS 3 Zrotation Xrotation Yrotation
                JOINT lThumb2
                {
                  OFFSET 3.37035 -0.52449 3.41376
                  CHANNELS 3 Zrotation Xrotation Yrotation
                  End Site
                  {
                    OFFSET 1.78271 -1.18214 1.43049
                  }
                }
              }
              JOINT lIndex1
              {
                OFFSET 7.75947 0.938293 5.60832
                CHANNELS 3 Zrotation Xrotation Yrotation
                JOINT lIndex2
                {
                  OFFSET 2.54057 -0.884171 1.56538
                  CHANNELS 3 Zrotation Xrotation Yrotation
                  End Site
                  {
                    OFFSET 1.62519 -0.234802 1.16502
                  }
                }
              }
              JOINT lMid1
              {
                OFFSET 8.24714 1.18213 3.41376
                CHANNELS 3 Zrotation Xrotation Yrotation
                JOINT lMid2
                {
                  OFFSET 3.10165 -0.590103 1.0647
                  CHANNELS 3 Zrotation Xrotation Yrotation
                  End Site
                  {
                    OFFSET 2.48547 -0.328903 0.83742
                  }
                }
              }
              JOINT lRing1
              {
                OFFSET 8.82822 0.546677 1.51678
                CHANNELS 3 Zrotation Xrotation Yrotation
                JOINT lRing2
                {
                  OFFSET 2.60934 -0.819778 -0.0198488
                  CHANNELS 3 Zrotation Xrotation Yrotation
                  End Site
                  {
                    OFFSET 2.33842 -0.294052 0.168128
                  }
                }
              }
              JOINT lPinky1
              {
                OFFSET 8.27202 -0.0477905 -0.4584
                CHANNELS 3 Zrotation Xrotation Yrotation
                JOINT lPinky2
                {
                  OFFSET 1.82734 -0.647385 -0.700984
                  CHANNELS 3 Zrotation Xrotation Yrotation
                  End Site
                  {
                    OFFSET 1.69225 -0.51767 -0.607171
                  }
                }
              }
            }
          }
        }
      }
    }
  }
  JOINT rButtock
  {
    OFFSET -8.77824 4.35084 1.2192
    CHANNELS 3 Zrotation Xrotation Yrotation
    JOINT rThigh
    {
      OFFSET 0 -1.70687 -2.19456
      CHANNELS 3 Zrotation Xrotation Yrotation
      JOINT rShin
      {
        OFFSET 0 -36.8199 0.73152
        CHANNELS 3 Zrotation Xrotation Yrotation
        JOINT rFoot
        {
          OFFSET 0.73152 -45.1104 -5.12064
          CHANNELS 3 Zrotation Xrotation Yrotation
          End Site
          {
            OFFSET -1.1221 -3.69964 12.103
          }
        }
      }
    }
  }
  JOINT lButtock
  {
    OFFSET 8.77824 4.35084 1.2192
    CHANNELS 3 Zrotation Xrotation Yrotation
    JOINT lThigh
    {
      OFFSET 0 -1.70687 -2.19456
      CHANNELS 3 Zrotation Xrotation Yrotation
      JOINT lShin
      {
        OFFSET 0 -36.8199 0.73152
        CHANNELS 3 Zrotation Xrotation Yrotation
        JOINT lFoot
        {
          OFFSET -0.73152 -45.1104 -5.12064
          CHANNELS 3 Zrotation Xrotation Yrotation
          End Site
          {
            OFFSET 1.1221 -3.69964 12.103
          }
        }
      }
    }
  }
}
MOTION
Frames:	8
Frame Time:	0.00833333
19.1617 51.1108 147.6599 -12.303156 -58.745921 11.970375 0.022068 6.763446 -176.534226 -0.378199 7.606681 -164.56376 -12.089298 24.769753 -82.377597 35.738275 17.215819 105.067756 0.313254 0.001024 0.37468 0.401273 -0.00399 -1.13947 0.013586 -0.429878 -0.118904 63.683481 -14.035082 -1.874684 158.114758 -38.752106 10.133582 -110.380032 48.863222 94.35492 -5.011634 3.726016 -0.224374 -37.572197 24.811875 35.073056 -46.832593 39.891753 35.649009 -162.931897 -8.493253 112.164408 -83.371953 61.082539 74.276286 -162.959354 -3.809041 143.737812 -1.759724 -1.675796 1.70744 -148.114219 48.169212 164.492148 -81.838163 -53.69162 -79.095611 -152.643532 37.098226 -147.806264 9.779165 34.759007 -11.555671 76.816527 20.391017 -101.077185 -9.702307 -4.534368 122.690854 -153.462118 -35.903211 -138.280305 -50.781242 -41.638959 -12.205899 144.390641 -12.11631 -121.588261 -162.012376 -70.51044 -104.170912 166.785701 -33.020523 -115.13249 -6.650608 -18.20089 3.302103 10.226029 25.400214 -8.048878 144.822895 2.474232 -179.258313 70.696671 -79.189854 91.545483 12.095205 -23.267036 10.299334 23.065814 -41.168176 26.111005 179.590786 74.737204 0.424174 145.184419 38.138898 -63.916542 -94.409482 17.971312 -53.109849 178.680837 -11.253998 -115.120049 0.007854 1.022257 -0.4402 70.561368 -45.559922 159.800329 87.762021 1.035828 97.107008 -28.366397 14.37004 169.324793
19.328699999999998 51.0562 147.7474 -12.144662 -58.755059 11.88363 -0.289088 11.496491 0.898275 0.852086 -12.354851 18.219416 7.391135 17.769986 63.589355 -22.57748 -13.330237 -41.206556 0.251375 6.2e-05 0.028161 0.702909 -0.008621 -1.405415 -6.069862 25.607384 7.168773 52.133919 27.141122 26.287751 179.861364 4.474805 30.317438 -133.507764 38.755306 118.456138 -81.496305 39.708433 43.895108 -117.700773 -15.100141 78.049068 -174.061229 -52.610694 120.78248 -77.12357 56.374349 63.083679 -36.655715 51.662129 29.632051 2.732698 0.129454 -0.157491 -69.492273 71.009186 85.288005 -57.332154 81.591078 67.694155 -129.058169 -27.853097 -126.530335 18.521253 43.495872 5.993351 155.532485 -3.911628 -161.583072 -149.24784 -0.765093 155.289253 -116.534412 38.544496 -100.940081 -170.530274 3.855952 -150.016371 94.602747 38.382845 -54.588554 29.863817 -7.384024 -35.830338 45.093604 40.53221 -35.859397 -2.124496 5.775304 1.724435 165.606764 -27.852667 -146.210472 1.012224 19.232837 -4.038905 -0.625389 -0.467829 -0.577661 -10.403528 0.010853 1.166916 145.76145 11.602651 142.524289 86.478085 -52.196042 83.925011 -0.032631 1.017744 -0.033227 -30.675968 -28.135265 -93.963635 -88.193744 23.367181 6.056916 -69.37547 -73.554987 8.140319 -179.394409 74.767187 -0.0 -138.115001 4.519051 -0.0 -57.155853 80.585309 -87.019434 146.4155 5.917191 -153.083027
19.489600000000003 50.9768 147.8334 -12.036332 -58.702886 11.775871 -0.324068 11.542218 0.051613 1.003875 -12.345389 19.090852 -11.469824 27.157027 -97.387499 33.338342 25.197727 118.345484 0.218664 -0.000756 -0.396161 0.847969 -0.010736 -1.450705 -155.522756 -3.103659 161.830219 -168.26775 72.724303 123.006334 143.19721 12.736781 -36.336232 -26.037987 3.685264 5.959439 -179.624441 -16.387485 90.490818 93.474452 -70.514074 71.20009 -154.255921 -20.63417 122.263612 -176.315211 -43.623148 115.420448 -161.983027 -7.967469 143.671393 -0.13983 10.231304 1.259902 -69.289008 71.209714 85.150145 -74.863073 -83.464884 -93.427777 -1.039974 0.156977 1.838916 -23.804252 -41.869425 -23.742342 30.616826 -85.854725 52.029272 152.251869 37.446288 139.565804 179.817662 -78.073848 94.432811 9.732025 49.408783 -4.279458 159.537219 2.118246 -89.335103 29.604695 -28.831057 -11.967019 44.340605 40.346902 -35.137204 3.998293 14.130687 -0.804586 -77.021907 -81.587278 -46.924298 152.254323 18.890576 -136.043677 71.401504 72.476857 -90.045689 -3.760315 47.588017 -2.902408 -14.855826 58.02575 -13.940063 -7.987918 18.487285 -5.407966 179.790798 74.890703 0.140711 145.314153 37.578858 -100.474992 -88.286085 -22.093812 13.93778 130.353235 30.490245 -12.56863 -1.986237 0.867136 -2.015738 73.691689 -41.819254 -18.959507 -83.515181 -5.581881 -28.175663 -1.144772 18.53165 111.543137
19.6478 50.94800000000001 147.90730000000002 -12.009691 -58.647044 11.69579 -0.26993 11.620509 -0.0 0.95607 -12.342159 19.099227 -11.83993 25.320469 -86.825609 34.993305 19.559152 109.139717 0.209638 -0.001397 -0.763534 0.841243 -0.009721 -1.324109 -155.196994 -0.905708 161.361435 135.691105 -18.477104 166.934903 175.946358 -7.044317 28.685004 -129.252006 41.657312 114.194484 -170.555912 -7.277586 90.883606 -171.055828 -9.639455 89.135407 -152.134069 -16.728233 121.617283 15.784701 -8.785234 -11.025482 -161.302628 -5.563879 143.444569 -154.509048 20.277088 139.234328 -53.92215 70.120375 69.14732 7.371409 1.797284 -3.321087 -146.872638 14.637566 -143.87778 17.554998 41.406032 4.229929 155.61567 -4.019491 -161.688951 -156.929153 -15.957703 153.077081 62.631619 -48.2416 -33.210079 -3.107895 11.338323 -3.360125 2.349021 3.119954 -0.332425 122.695842 -15.736297 -110.110391 -44.210657 -64.251977 -2.34882 0.567253 25.350269 -3.445809 159.556808 -6.691059 -143.84277 -13.27328 -24.657958 2.323953 -0.723004 -0.006948 -0.435614 132.016705 -82.991829 153.945309 125.190411 -29.482211 123.089265 133.849413 -18.411381 130.825539 0.005082 0.649092 -0.006591 -30.481764 -27.762083 -94.623358 -88.945192 22.417868 -0.135619 124.599877 44.208802 -10.972684 -174.332438 75.090528 -3.827344 -140.540523 4.518685 84.268791 84.028661 15.278087 144.939342 127.182188 -17.988139 -149.02745
19.8059 50.9494 147.9694 -12.059826 -58.65819 11.7149 0.012071 6.832598 -177.654309 -0.398693 7.532475 -163.442219 -0.883196 33.443171 -169.230097 -4.428395 42.37452 -161.186407 0.102423 -0.001018 -1.138389 0.834497 -0.009027 -1.239511 -9.716321 34.843633 11.129631 -127.891852 -30.228201 145.039647 -0.914849 -5.584444 -147.998195 -142.188879 31.2407 127.777929 1.076948 -2.096817 -1.179433 -120.83438 -8.55776 108.663028 -160.531122 -32.227813 123.25273 -86.742974 56.499723 69.950528 -0.478515 -1.724523 -0.650939 -11.417777 33.289981 9.873073 -69.077224 71.29579 85.094082 7.246881 13.137233 -2.210213 -144.758735 8.098636 -141.953645 -155.842295 37.577346 -144.57738 155.537597 -3.577029 -161.64312 27.863098 23.179266 26.869669 -124.888448 22.178639 46.450875 153.370136 71.734844 -135.003941 -177.050418 -20.920637 -88.698247 176.07661 -12.359368 -98.95522 -10.612227 -17.899321 5.26814 64.744179 48.400289 -51.474712 -0.754179 0.825789 0.1864 -58.987231 -74.46839 -34.083682 144.48499 0.763844 -179.986466 152.462654 -25.109323 175.878607 156.422426 57.143171 151.454738 -64.734445 83.845981 28.196507 0.053802 0.525464 -0.0 -31.739612 -28.649085 -180.0 -79.854847 -52.493316 133.527112 -28.410218 -11.710639 -57.113816 1.940611 0.45583 0.97393 66.657954 -44.890181 59.530804 -33.615289 71.216612 0.60397 -102.20644 -56.50554 4.717827
19.9684 50.8582 148.0207 -12.127741 -58.627158 11.818027 0.130152 6.672394 180.0 -0.666298 7.376166 -161.186552 -11.836814 23.941003 -79.342915 35.274603 15.343533 103.023152 -0.072574 0.000938 -1.481383 0.811224 -0.008778 -1.239869 -82.958976 68.290384 85.978591 -97.398788 19.126986 101.747247 -0.71086 21.543756 -146.020484 -141.632296 32.139179 126.911557 -8.571062 7.250142 0.664365 12.677294 -15.359395 -4.822963 -20.241251 24.026574 12.718117 100.990616 -62.266545 49.300995 -0.560531 -1.750234 -0.5227 3.277397 1.089657 0.441329 -1.729739 -2.734397 0.948881 10.486479 12.712882 -0.22673 -137.186484 -11.87257 -134.793384 16.539352 35.592573 4.752492 -0.180897 -0.820457 0.0184 -50.636856 17.97498 -38.744247 -36.421889 -31.506637 -111.620975 38.478895 74.896478 -26.406267 2.432246 3.026273 -0.435325 66.565878 26.747489 -61.53383 -37.267695 -57.917046 1.305293 -0.741609 22.093907 -2.811985 166.25911 -27.917735 -145.37279 112.260842 58.726848 -104.885301 -0.618883 -0.934018 -0.705912 -9.273599 12.705814 -0.763221 156.396707 57.152982 151.436482 -172.777245 79.961664 131.87131 0.000693 0.480157 -0.082751 -32.817525 -27.346989 83.88545 88.538722 -34.967538 3.707159 -39.259948 2.447485 -110.016206 -173.923363 75.352165 -4.125017 -139.309379 3.40083 180.0 52.377249 -76.824511 140.901488 149.573318 -12.547188 -105.028402
20.145 50.75150000000001 148.0529 -12.117165 -58.474361 11.869979 -0.095339 6.523587 171.060785 -2.088228 7.049384 -152.2563 -4.984861 14.253578 -10.478822 19.215915 -18.442004 39.84403 -0.173623 0.002052 -1.354126 0.793653 -0.00787 -1.136184 0.049166 -1.008289 -0.136328 -22.713199 -86.50351 -91.218548 -164.504149 45.308069 -75.45349 -14.318609 -59.01947 -16.090404 -172.610342 -8.722512 90.991476 91.442132 -66.686343 68.652033 51.036222 -68.337052 9.614033 12.501679 6.321559 -4.480213 -126.801064 50.075281 115.176166 -169.120484 -21.719699 143.691315 -79.070835 -73.932525 -94.337376 -150.503659 -32.244948 -177.699353 -155.337578 56.729564 -153.534684 38.952281 73.961004 -5.419208 -0.1023 0.142351 -0.151338 -117.283643 -49.282642 -57.045682 -161.908548 -32.10502 -42.240767 -159.887748 -25.320141 -143.530246 93.50443 38.140366 -53.78066 110.418362 -10.548044 -70.912093 156.662708 -28.39496 -122.518965 -145.115528 -66.987699 -85.117056 59.797873 59.654359 -53.37929 -91.196284 -80.424053 -63.182979 -0.625946 -1.823631 -0.684252 154.65789 13.138757 -171.350629 -11.736901 41.456618 -10.991215 146.533653 7.915756 143.202986 -0.693142 0.541771 -0.699738 -30.475079 -29.002152 -180.0 -100.837487 -55.29915 -99.221853 -127.560989 26.08621 -138.513505 0.004156 0.375893 -0.63353 71.368325 -43.012126 -19.293376 -88.189019 1.468345 -104.04827 160.888955 27.490683 160.686293
20.342299999999998 50.7706 148.0503 -12.015544 -58.321703 11.820112 0.180707 6.445207 176.401243 -1.20802 7.195754 -157.729552 -11.471548 26.69069 -94.821259 33.481089 23.48795 116.668473 -0.11381 0.000764 -0.769107 0.725162 -0.005145 -0.813035 3.098208 -25.858795 -4.928037 4.276781 -62.403056 -59.557389 35.734344 -54.660678 -123.760717 -115.978048 48.118557 99.542983 -179.567123 -15.814125 90.745054 -160.442379 0.370202 87.548614 -140.301665 5.578083 115.035871 -135.67638 31.919832 106.668639 22.299687 -61.612032 1.137792 -4.648527 21.396871 4.163959 -73.962051 -74.030685 -88.843056 -101.57878 83.716541 117.797412 -1.030637 -1.600389 1.368679 -52.992833 -54.081725 -51.313739 142.727882 39.369854 -147.294546 51.299037 9.032628 -11.496956 -82.430262 -21.921139 89.350947 -176.849106 24.631315 -151.730623 -71.87616 -48.49847 -25.4455 73.555156 38.185918 -39.124367 -159.768216 -70.072909 -101.818945 153.796209 -8.510721 -116.077745 124.861364 49.707003 -115.39083 175.817278 -46.331319 -145.01783 78.013566 -73.174166 95.822818 152.325438 -1.702839 -176.410799 -30.275044 84.60281 -8.030804 9.547111 -23.932055 9.53466 178.8729 75.149335 1.166039 145.586729 37.89129 -101.217813 -89.626314 -10.116393 -168.398686 89.651867 72.518756 164.17566 0.345226 0.45473 -0.446601 69.939635 -45.627982 159.793015 88.301881 -0.988694 81.911711 162.595495 26.025481 163.538425
